<?xml version="1.0" encoding="UTF-8" standalone="no"?>
<!-- Generator: Adobe Illustrator 23.0.6, SVG Export Plug-In . SVG Version: 6.00 Build 0)  -->

<svg
   xmlns:dc="http://purl.org/dc/elements/1.1/"
   xmlns:cc="http://creativecommons.org/ns#"
   xmlns:rdf="http://www.w3.org/1999/02/22-rdf-syntax-ns#"
   xmlns:svg="http://www.w3.org/2000/svg"
   xmlns="http://www.w3.org/2000/svg"
   xmlns:sodipodi="http://sodipodi.sourceforge.net/DTD/sodipodi-0.dtd"
   xmlns:inkscape="http://www.inkscape.org/namespaces/inkscape"
   version="1.1"
   x="0px"
   y="0px"
   viewBox="0 0 336.9 92.1"
   style="enable-background:new 0 0 336.9 92.1;"
   xml:space="preserve"
   id="svg3827"
   sodipodi:docname="anapaya_horizontal_dark.svg"
   inkscape:version="0.92.3 (2405546, 2018-03-11)"><metadata
   id="metadata3833"><rdf:RDF><cc:Work
       rdf:about=""><dc:format>image/svg+xml</dc:format><dc:type
         rdf:resource="http://purl.org/dc/dcmitype/StillImage" /><dc:title></dc:title></cc:Work></rdf:RDF></metadata><defs
   id="defs3831" /><sodipodi:namedview
   pagecolor="#ffffff"
   bordercolor="#666666"
   borderopacity="1"
   objecttolerance="10"
   gridtolerance="10"
   guidetolerance="10"
   inkscape:pageopacity="0"
   inkscape:pageshadow="2"
   inkscape:window-width="2182"
   inkscape:window-height="1096"
   id="namedview3829"
   showgrid="false"
   inkscape:pagecheckerboard="true"
   inkscape:zoom="1.7727813"
   inkscape:cx="309.69999"
   inkscape:cy="104.46268"
   inkscape:window-x="2891"
   inkscape:window-y="141"
   inkscape:window-maximized="0"
   inkscape:current-layer="g3811" />
<style
   type="text/css"
   id="style3793">
	.st0{fill:#0096D6;}
	.st1{fill:url(#SVGID_1_);}
</style>
<g
   id="Layer_1">
</g>
<g
   id="Logo">
</g>
<g
   id="Isolation_Mode">
	<g
   id="g3824">
		<g
   id="g3813">
			<g
   id="g3811">
				<path
   class="st0"
   d="M136.2,59h-2.6c-0.9,0-1.4-0.4-1.7-1.2l-1.5-4.1h-11l-1.5,4.1c-0.3,0.8-0.8,1.2-1.7,1.2h-2.5      c-1.1,0-1.6-0.7-1.2-1.7l9.1-23.5c0.3-0.8,0.9-1.2,1.7-1.2h3.2c0.9,0,1.4,0.4,1.7,1.2l9,23.5C137.8,58.3,137.4,59,136.2,59z       M128.9,49.2l-3.9-10.8H125l-3.9,10.8H128.9z"
   id="path3797"
   style="fill:#ffffff" />
				<path
   class="st0"
   d="M148.1,57.5V34c0-1,0.5-1.5,1.5-1.5h2.6c0.8,0,1.4,0.3,1.8,0.9l12,17.2h0.1V34c0-1,0.5-1.5,1.5-1.5h2      c1,0,1.5,0.5,1.5,1.5v23.5c0,1-0.5,1.5-1.5,1.5h-2.6c-0.8,0-1.4-0.3-1.8-0.9l-12-17.2h-0.1v16.7c0,1-0.5,1.5-1.5,1.5h-2      C148.7,59,148.1,58.5,148.1,57.5z"
   id="path3799"
   style="fill:#ffffff" />
				<path
   class="st0"
   d="M205.6,59H203c-0.9,0-1.4-0.4-1.7-1.2l-1.5-4.1h-11l-1.5,4.1c-0.3,0.8-0.8,1.2-1.7,1.2h-2.5      c-1.1,0-1.6-0.7-1.2-1.7l9.1-23.5c0.3-0.8,0.9-1.2,1.7-1.2h3.2c0.9,0,1.4,0.4,1.7,1.2l9,23.5C207.2,58.3,206.7,59,205.6,59z       M198.3,49.2l-3.9-10.8h-0.1l-3.9,10.8H198.3z"
   id="path3801"
   style="fill:#ffffff" />
				<path
   class="st0"
   d="M238.5,41.2c0,5.5-3.4,8.7-9.5,8.7h-6.4v7.6c0,1-0.5,1.5-1.5,1.5H219c-1,0-1.5-0.5-1.5-1.5V34      c0-1,0.5-1.5,1.5-1.5h10.2C235.1,32.5,238.5,35.7,238.5,41.2z M233.2,41.2c0-2.8-1.4-4-4.7-4h-5.8v8h5.7      C231.8,45.2,233.2,44,233.2,41.2z"
   id="path3803"
   style="fill:#ffffff" />
				<path
   class="st0"
   d="M268.6,59h-2.6c-0.9,0-1.4-0.4-1.7-1.2l-1.5-4.1h-11l-1.5,4.1c-0.3,0.8-0.8,1.2-1.7,1.2h-2.5      c-1.1,0-1.6-0.7-1.2-1.7l9.1-23.5c0.3-0.8,0.9-1.2,1.7-1.2h3.2c0.9,0,1.4,0.4,1.7,1.2l9,23.5C270.2,58.3,269.7,59,268.6,59z       M261.3,49.2l-3.9-10.8h-0.1l-3.9,10.8H261.3z"
   id="path3805"
   style="fill:#ffffff" />
				<path
   class="st0"
   d="M283.4,57.5v-8.6l-8.3-14.6c-0.6-1-0.1-1.8,1-1.8h2.7c0.8,0,1.4,0.3,1.8,1.1l5.4,10.2h0.1l5.4-10.2      c0.4-0.7,0.9-1.1,1.8-1.1h2.7c1.2,0,1.6,0.8,1,1.8l-8.4,14.6v8.6c0,1-0.5,1.5-1.5,1.5h-2.3C283.9,59,283.4,58.5,283.4,57.5z"
   id="path3807"
   style="fill:#ffffff" />
				<path
   class="st0"
   d="M326,59h-2.6c-0.9,0-1.4-0.4-1.7-1.2l-1.5-4.1h-11l-1.5,4.1c-0.3,0.8-0.8,1.2-1.7,1.2h-2.5      c-1.1,0-1.6-0.7-1.2-1.7l9.1-23.5c0.3-0.8,0.9-1.2,1.7-1.2h3.2c0.9,0,1.4,0.4,1.7,1.2l9,23.5C327.6,58.3,327.1,59,326,59z       M318.7,49.2l-3.9-10.8h-0.1l-3.9,10.8H318.7z"
   id="path3809"
   style="fill:#ffffff" />
			</g>
		</g>
		<linearGradient
   id="SVGID_1_"
   gradientUnits="userSpaceOnUse"
   x1="76.6381"
   y1="37.3064"
   x2="13.823"
   y2="76.4131">
			<stop
   offset="0.4417"
   style="stop-color:#005A9B"
   id="stop3815" />
			<stop
   offset="0.9697"
   style="stop-color:#50A9DE"
   id="stop3817" />
			<stop
   offset="0.9989"
   style="stop-color:#58AEE2"
   id="stop3819" />
		</linearGradient>
		<path
   class="st1"
   d="M14.3,84.7c2.5,1.4,5.3,2.1,8.1,2.1c6.1,0,11.7-3.3,14.6-8.6l12.1-21.6l12,21.6c2.9,5.3,8.6,8.6,14.6,8.6    c2.8,0,5.6-0.7,8.1-2.1c3.9-2.2,6.7-5.7,8-10c1.2-4.3,0.7-8.8-1.5-12.7L67.1,20.2c-0.1-0.2-0.6-1.2-1.3-2.4l-0.1-0.1    c0,0,0-0.1-0.1-0.1c-2.1-3.6-5.3-8.2-8.4-9.9c-3.9-2.2-8.4-2.7-12.7-1.5c-4.3,1.2-7.9,4-10,7.9L7.8,61.9c-0.2,0.3-0.3,0.6-0.4,0.9    C3.5,70.8,6.5,80.4,14.3,84.7z M52.8,14c-1.5,0.8-2.8,2.1-3.6,3.6L20.5,69c-0.7,1.2-1.8,2.1-3.1,2.4c-1.3,0.4-2.7,0.2-3.9-0.4    c-1.2-0.7-2.1-1.8-2.4-3.1c-0.4-1.3-0.2-2.7,0.4-3.9l26.7-47.8l0.1-0.3c1.6-2.8,4.2-4.8,7.3-5.6c3.2-0.9,6.5-0.5,9.4,1.1    c0.5,0.3,1.1,0.8,1.8,1.4C55.4,12.9,54.1,13.3,52.8,14z M16,76c3.4,0,6.6-1.9,8.3-4.9L53,19.8c0,0,0.8-1.3,2-1.9    c2.4-1.4,5.5-0.5,6.9,1.9l24.7,44.4c1.6,2.9,2,6.2,1.1,9.4c-0.9,3.2-3,5.8-5.9,7.4c-4.4,2.4-9.8,2-13.7-1.1    c1.4-0.1,2.9-0.5,4.1-1.2c2.2-1.2,3.8-3.2,4.5-5.7c0.7-2.4,0.4-5-0.8-7.2L65.7,47.6c-1.2-2.2-3.2-3.8-5.7-4.5    c-2.4-0.7-5-0.4-7.2,0.8c-1.6,0.9-2.9,2.2-3.7,3.8L33.2,76.1c-3.3,6-10.9,8.1-16.8,4.8c-2.6-1.5-4.6-3.7-5.6-6.5    c0.2,0.1,0.4,0.3,0.7,0.4C12.9,75.6,14.4,76,16,76z M52.9,49.8c0.5-0.9,1.2-1.6,2-2c1.2-0.7,2.6-0.8,3.9-0.5    c1.3,0.4,2.4,1.2,3.1,2.4L72,67.9c0.7,1.2,0.8,2.6,0.4,3.9c-0.4,1.3-1.2,2.4-2.4,3.1c-1.2,0.7-2.6,0.8-3.9,0.5    c-1.3-0.4-2.4-1.2-3.1-2.4l-0.2-0.3L51.6,52.2L52.9,49.8z"
   id="path3822" />
	</g>
</g>
</svg>